<svg width="367" height="156" viewBox="0 0 367 156" fill="none" xmlns="http://www.w3.org/2000/svg">
<path d="M35.58 17.12H20.4V56H16.2V17.12H1.02V13.4H35.58V17.12ZM67.4011 56H63.3211V38.54C63.3211 31.46 60.9211 27.92 56.1211 27.92C54.5611 27.92 53.0411 28.32 51.5611 29.12C50.0811 29.88 48.7611 30.94 47.6011 32.3C46.4811 33.62 45.6811 35.14 45.2011 36.86V56H41.1211V12.2H45.2011V31.82C46.4411 29.5 48.1611 27.66 50.3611 26.3C52.6011 24.9 54.9811 24.2 57.5011 24.2C59.9011 24.2 61.8211 24.78 63.2611 25.94C64.7011 27.06 65.7411 28.64 66.3811 30.68C67.0611 32.68 67.4011 35.02 67.4011 37.7V56ZM89.6016 56.6C86.6016 56.6 83.9216 55.86 81.5616 54.38C79.2016 52.9 77.3416 50.92 75.9816 48.44C74.6216 45.96 73.9416 43.24 73.9416 40.28C73.9416 37.36 74.6016 34.68 75.9216 32.24C77.2816 29.8 79.1416 27.86 81.5016 26.42C83.8616 24.94 86.5416 24.2 89.5416 24.2C92.6216 24.2 95.3216 24.94 97.6416 26.42C99.9616 27.9 101.762 29.86 103.042 32.3C104.362 34.7 105.022 37.34 105.022 40.22C105.022 40.86 105.002 41.4 104.962 41.84H78.2016C78.4016 44.08 79.0416 46.08 80.1216 47.84C81.2016 49.56 82.5816 50.94 84.2616 51.98C85.9416 52.98 87.7816 53.48 89.7816 53.48C91.8216 53.48 93.7416 52.96 95.5416 51.92C97.3416 50.88 98.6216 49.52 99.3816 47.84L102.922 48.8C102.282 50.32 101.282 51.68 99.9216 52.88C98.6016 54.04 97.0616 54.96 95.3016 55.64C93.5416 56.28 91.6416 56.6 89.6016 56.6ZM78.0816 38.9H101.182C101.022 36.66 100.402 34.68 99.3216 32.96C98.2416 31.2 96.8616 29.84 95.1816 28.88C93.5016 27.88 91.6416 27.38 89.6016 27.38C87.5616 27.38 85.7016 27.88 84.0216 28.88C82.3416 29.84 80.9616 31.2 79.8816 32.96C78.8416 34.68 78.2416 36.66 78.0816 38.9Z" fill="black"/>
<path d="M32.045 136.425C27.625 136.425 23.6017 135.575 19.975 133.875C16.405 132.175 13.3167 129.88 10.71 126.99C8.16 124.043 6.17667 120.757 4.76 117.13C3.34333 113.447 2.635 109.678 2.635 105.825C2.635 101.802 3.37167 97.9767 4.845 94.35C6.31833 90.6667 8.38667 87.4083 11.05 84.575C13.7133 81.685 16.83 79.4183 20.4 77.775C24.0267 76.075 27.9933 75.225 32.3 75.225C36.6633 75.225 40.63 76.1033 44.2 77.86C47.8267 79.6167 50.915 81.9683 53.465 84.915C56.0717 87.8617 58.055 91.1767 59.415 94.86C60.8317 98.4867 61.54 102.198 61.54 105.995C61.54 109.962 60.8033 113.787 59.33 117.47C57.8567 121.097 55.7883 124.355 53.125 127.245C50.5183 130.078 47.4017 132.317 43.775 133.96C40.205 135.603 36.295 136.425 32.045 136.425ZM14.535 105.825C14.535 109.338 15.215 112.625 16.575 115.685C17.9917 118.745 20.0033 121.238 22.61 123.165C25.2733 125.092 28.4467 126.055 32.13 126.055C35.9267 126.055 39.1283 125.063 41.735 123.08C44.3417 121.097 46.325 118.547 47.685 115.43C49.045 112.313 49.725 109.112 49.725 105.825C49.725 102.312 49.0167 99.025 47.6 95.965C46.1833 92.905 44.1433 90.44 41.48 88.57C38.8733 86.6433 35.7567 85.68 32.13 85.68C28.3333 85.68 25.1317 86.6717 22.525 88.655C19.9183 90.6383 17.935 93.1883 16.575 96.305C15.215 99.365 14.535 102.538 14.535 105.825ZM95.538 101.32C92.0813 101.32 88.993 102 86.273 103.36C83.553 104.663 81.598 106.562 80.408 109.055V136H69.018V91.46H79.473V100.98C81.003 97.92 82.9863 95.5117 85.423 93.755C87.9163 91.9983 90.523 91.035 93.243 90.865C94.433 90.865 95.198 90.8933 95.538 90.95V101.32ZM98.7541 113.73C98.7541 109.48 99.6041 105.598 101.304 102.085C103.004 98.5717 105.356 95.795 108.359 93.755C111.362 91.715 114.791 90.695 118.644 90.695C121.931 90.695 124.877 91.5167 127.484 93.16C130.147 94.7467 132.216 96.7867 133.689 99.28V73.95H145.079V123.25C145.079 124.497 145.277 125.375 145.674 125.885C146.071 126.338 146.751 126.622 147.714 126.735V136C145.674 136.397 144.059 136.595 142.869 136.595C140.829 136.595 139.129 136.085 137.769 135.065C136.466 134.045 135.729 132.713 135.559 131.07L135.389 128.265C133.746 131.042 131.507 133.167 128.674 134.64C125.897 136.113 122.979 136.85 119.919 136.85C115.782 136.85 112.127 135.83 108.954 133.79C105.781 131.693 103.287 128.917 101.474 125.46C99.6607 121.947 98.7541 118.037 98.7541 113.73ZM133.689 119.68V109.055C132.782 106.562 131.224 104.493 129.014 102.85C126.804 101.207 124.537 100.385 122.214 100.385C119.891 100.385 117.851 101.037 116.094 102.34C114.337 103.587 112.977 105.258 112.014 107.355C111.051 109.395 110.569 111.605 110.569 113.985C110.569 116.422 111.107 118.66 112.184 120.7C113.261 122.683 114.706 124.27 116.519 125.46C118.389 126.593 120.514 127.16 122.894 127.16C125.047 127.16 127.172 126.452 129.269 125.035C131.422 123.618 132.896 121.833 133.689 119.68ZM156.259 85.255V73.95H167.649V85.255H156.259ZM156.259 136V91.46H167.649V136H156.259ZM219.319 136H207.929V111.01C207.929 107.44 207.306 104.833 206.059 103.19C204.813 101.547 203.084 100.725 200.874 100.725C199.344 100.725 197.786 101.122 196.199 101.915C194.669 102.708 193.281 103.813 192.034 105.23C190.788 106.59 189.881 108.177 189.314 109.99V136H177.924V91.46H188.209V99.705C189.853 96.9283 192.233 94.7467 195.349 93.16C198.466 91.5167 201.979 90.695 205.889 90.695C208.666 90.695 210.933 91.205 212.689 92.225C214.446 93.1883 215.806 94.52 216.769 96.22C217.733 97.8633 218.384 99.7333 218.724 101.83C219.121 103.927 219.319 106.052 219.319 108.205V136ZM226.163 122.825C226.163 119.935 226.956 117.413 228.543 115.26C230.186 113.05 232.453 111.35 235.343 110.16C238.233 108.97 241.548 108.375 245.288 108.375C247.158 108.375 249.056 108.545 250.983 108.885C252.91 109.168 254.581 109.593 255.998 110.16V107.78C255.998 104.947 255.148 102.765 253.448 101.235C251.805 99.705 249.34 98.94 246.053 98.94C243.616 98.94 241.293 99.365 239.083 100.215C236.873 101.065 234.55 102.312 232.113 103.955L228.458 96.475C231.405 94.5483 234.408 93.1033 237.468 92.14C240.585 91.1767 243.843 90.695 247.243 90.695C253.59 90.695 258.52 92.2817 262.033 95.455C265.603 98.6283 267.388 103.162 267.388 109.055V123.25C267.388 124.497 267.586 125.375 267.983 125.885C268.38 126.338 269.088 126.622 270.108 126.735V136C269.088 136.227 268.153 136.368 267.303 136.425C266.51 136.538 265.83 136.595 265.263 136.595C262.996 136.595 261.268 136.085 260.078 135.065C258.888 134.045 258.18 132.798 257.953 131.325L257.698 129.03C255.715 131.58 253.278 133.535 250.388 134.895C247.555 136.198 244.636 136.85 241.633 136.85C238.63 136.85 235.966 136.255 233.643 135.065C231.32 133.818 229.478 132.147 228.118 130.05C226.815 127.897 226.163 125.488 226.163 122.825ZM253.873 125.12C255.29 123.76 255.998 122.457 255.998 121.21V116.705C253.051 115.515 250.076 114.92 247.073 114.92C244.07 114.92 241.633 115.572 239.763 116.875C237.893 118.122 236.958 119.793 236.958 121.89C236.958 123.59 237.638 125.12 238.998 126.48C240.358 127.84 242.313 128.52 244.863 128.52C246.563 128.52 248.206 128.208 249.793 127.585C251.436 126.962 252.796 126.14 253.873 125.12ZM304.552 101.32C301.095 101.32 298.007 102 295.287 103.36C292.567 104.663 290.612 106.562 289.422 109.055V136H278.032V91.46H288.487V100.98C290.017 97.92 292 95.5117 294.437 93.755C296.93 91.9983 299.537 91.035 302.257 90.865C303.447 90.865 304.212 90.8933 304.552 90.95V101.32ZM311.838 144.67C313.934 145.237 315.634 145.52 316.938 145.52C318.468 145.52 319.686 144.868 320.593 143.565C321.556 142.318 322.633 139.797 323.823 136L306.228 91.46H318.043L330.028 124.355L340.568 91.46H351.448L332.748 144.84C331.728 147.9 329.886 150.422 327.223 152.405C324.616 154.445 321.386 155.465 317.533 155.465C315.663 155.465 313.764 155.153 311.838 154.53V144.67ZM351.986 136V123.76H361.336V136H351.986Z" fill="black"/>
</svg>
