<svg width="173" height="65" viewBox="0 0 173 65" fill="none" xmlns="http://www.w3.org/2000/svg">
<path d="M10.674 5.336H6.12V17H4.86V5.336H0.306V4.22H10.674V5.336ZM20.2203 17H18.9963V11.762C18.9963 9.638 18.2763 8.576 16.8363 8.576C16.3683 8.576 15.9123 8.696 15.4683 8.936C15.0243 9.164 14.6283 9.482 14.2803 9.89C13.9443 10.286 13.7043 10.742 13.5603 11.258V17H12.3363V3.86H13.5603V9.746C13.9323 9.05 14.4483 8.498 15.1083 8.09C15.7803 7.67 16.4943 7.46 17.2503 7.46C17.9703 7.46 18.5463 7.634 18.9783 7.982C19.4103 8.318 19.7223 8.792 19.9143 9.404C20.1183 10.004 20.2203 10.706 20.2203 11.51V17ZM26.8805 17.18C25.9805 17.18 25.1765 16.958 24.4685 16.514C23.7605 16.07 23.2025 15.476 22.7945 14.732C22.3865 13.988 22.1825 13.172 22.1825 12.284C22.1825 11.408 22.3805 10.604 22.7765 9.872C23.1845 9.14 23.7425 8.558 24.4505 8.126C25.1585 7.682 25.9625 7.46 26.8625 7.46C27.7865 7.46 28.5965 7.682 29.2925 8.126C29.9885 8.57 30.5285 9.158 30.9125 9.89C31.3085 10.61 31.5065 11.402 31.5065 12.266C31.5065 12.458 31.5005 12.62 31.4885 12.752H23.4605C23.5205 13.424 23.7125 14.024 24.0365 14.552C24.3605 15.068 24.7745 15.482 25.2785 15.794C25.7825 16.094 26.3345 16.244 26.9345 16.244C27.5465 16.244 28.1225 16.088 28.6625 15.776C29.2025 15.464 29.5865 15.056 29.8145 14.552L30.8765 14.84C30.6845 15.296 30.3845 15.704 29.9765 16.064C29.5805 16.412 29.1185 16.688 28.5905 16.892C28.0625 17.084 27.4925 17.18 26.8805 17.18ZM23.4245 11.87H30.3545C30.3065 11.198 30.1205 10.604 29.7965 10.088C29.4725 9.56 29.0585 9.152 28.5545 8.864C28.0505 8.564 27.4925 8.414 26.8805 8.414C26.2685 8.414 25.7105 8.564 25.2065 8.864C24.7025 9.152 24.2885 9.56 23.9645 10.088C23.6525 10.604 23.4725 11.198 23.4245 11.87Z" fill="black"/>
<path d="M15.08 55.2C13 55.2 11.1067 54.8 9.4 54C7.72 53.2 6.26667 52.12 5.04 50.76C3.84 49.3733 2.90667 47.8267 2.24 46.12C1.57333 44.3867 1.24 42.6133 1.24 40.8C1.24 38.9067 1.58667 37.1067 2.28 35.4C2.97333 33.6667 3.94667 32.1333 5.2 30.8C6.45333 29.44 7.92 28.3733 9.6 27.6C11.3067 26.8 13.1733 26.4 15.2 26.4C17.2533 26.4 19.12 26.8133 20.8 27.64C22.5067 28.4667 23.96 29.5733 25.16 30.96C26.3867 32.3467 27.32 33.9067 27.96 35.64C28.6267 37.3467 28.96 39.0933 28.96 40.88C28.96 42.7467 28.6133 44.5467 27.92 46.28C27.2267 47.9867 26.2533 49.52 25 50.88C23.7733 52.2133 22.3067 53.2667 20.6 54.04C18.92 54.8133 17.08 55.2 15.08 55.2ZM6.84 40.8C6.84 42.4533 7.16 44 7.8 45.44C8.46667 46.88 9.41333 48.0533 10.64 48.96C11.8933 49.8667 13.3867 50.32 15.12 50.32C16.9067 50.32 18.4133 49.8533 19.64 48.92C20.8667 47.9867 21.8 46.7867 22.44 45.32C23.08 43.8533 23.4 42.3467 23.4 40.8C23.4 39.1467 23.0667 37.6 22.4 36.16C21.7333 34.72 20.7733 33.56 19.52 32.68C18.2933 31.7733 16.8267 31.32 15.12 31.32C13.3333 31.32 11.8267 31.7867 10.6 32.72C9.37333 33.6533 8.44 34.8533 7.8 36.32C7.16 37.76 6.84 39.2533 6.84 40.8ZM44.9591 38.68C43.3324 38.68 41.8791 39 40.5991 39.64C39.3191 40.2533 38.3991 41.1467 37.8391 42.32V55H32.4791V34.04H37.3991V38.52C38.1191 37.08 39.0524 35.9467 40.1991 35.12C41.3724 34.2933 42.5991 33.84 43.8791 33.76C44.4391 33.76 44.7991 33.7733 44.9591 33.8V38.68ZM46.4725 44.52C46.4725 42.52 46.8725 40.6933 47.6725 39.04C48.4725 37.3867 49.5792 36.08 50.9925 35.12C52.4058 34.16 54.0192 33.68 55.8325 33.68C57.3792 33.68 58.7658 34.0667 59.9925 34.84C61.2458 35.5867 62.2192 36.5467 62.9125 37.72V25.8H68.2725V49C68.2725 49.5867 68.3658 50 68.5525 50.24C68.7392 50.4533 69.0592 50.5867 69.5125 50.64V55C68.5525 55.1867 67.7925 55.28 67.2325 55.28C66.2725 55.28 65.4725 55.04 64.8325 54.56C64.2192 54.08 63.8725 53.4533 63.7925 52.68L63.7125 51.36C62.9392 52.6667 61.8858 53.6667 60.5525 54.36C59.2458 55.0533 57.8725 55.4 56.4325 55.4C54.4858 55.4 52.7658 54.92 51.2725 53.96C49.7792 52.9733 48.6058 51.6667 47.7525 50.04C46.8992 48.3867 46.4725 46.5467 46.4725 44.52ZM62.9125 47.32V42.32C62.4858 41.1467 61.7525 40.1733 60.7125 39.4C59.6725 38.6267 58.6058 38.24 57.5125 38.24C56.4192 38.24 55.4592 38.5467 54.6325 39.16C53.8058 39.7467 53.1658 40.5333 52.7125 41.52C52.2592 42.48 52.0325 43.52 52.0325 44.64C52.0325 45.7867 52.2858 46.84 52.7925 47.8C53.2992 48.7333 53.9792 49.48 54.8325 50.04C55.7125 50.5733 56.7125 50.84 57.8325 50.84C58.8458 50.84 59.8458 50.5067 60.8325 49.84C61.8458 49.1733 62.5392 48.3333 62.9125 47.32ZM73.5338 31.12V25.8H78.8938V31.12H73.5338ZM73.5338 55V34.04H78.8938V55H73.5338ZM103.209 55H97.8491V43.24C97.8491 41.56 97.5557 40.3333 96.9691 39.56C96.3824 38.7867 95.5691 38.4 94.5291 38.4C93.8091 38.4 93.0757 38.5867 92.3291 38.96C91.6091 39.3333 90.9557 39.8533 90.3691 40.52C89.7824 41.16 89.3557 41.9067 89.0891 42.76V55H83.7291V34.04H88.5691V37.92C89.3424 36.6133 90.4624 35.5867 91.9291 34.84C93.3957 34.0667 95.0491 33.68 96.8891 33.68C98.1957 33.68 99.2624 33.92 100.089 34.4C100.916 34.8533 101.556 35.48 102.009 36.28C102.462 37.0533 102.769 37.9333 102.929 38.92C103.116 39.9067 103.209 40.9067 103.209 41.92V55ZM106.43 48.8C106.43 47.44 106.803 46.2533 107.55 45.24C108.323 44.2 109.39 43.4 110.75 42.84C112.11 42.28 113.67 42 115.43 42C116.31 42 117.203 42.08 118.11 42.24C119.016 42.3733 119.803 42.5733 120.47 42.84V41.72C120.47 40.3867 120.07 39.36 119.27 38.64C118.496 37.92 117.336 37.56 115.79 37.56C114.643 37.56 113.55 37.76 112.51 38.16C111.47 38.56 110.376 39.1467 109.23 39.92L107.51 36.4C108.896 35.4933 110.31 34.8133 111.75 34.36C113.216 33.9067 114.75 33.68 116.35 33.68C119.336 33.68 121.656 34.4267 123.31 35.92C124.99 37.4133 125.83 39.5467 125.83 42.32V49C125.83 49.5867 125.923 50 126.11 50.24C126.296 50.4533 126.63 50.5867 127.11 50.64V55C126.63 55.1067 126.19 55.1733 125.79 55.2C125.416 55.2533 125.096 55.28 124.83 55.28C123.763 55.28 122.95 55.04 122.39 54.56C121.83 54.08 121.496 53.4933 121.39 52.8L121.27 51.72C120.336 52.92 119.19 53.84 117.83 54.48C116.496 55.0933 115.123 55.4 113.71 55.4C112.296 55.4 111.043 55.12 109.95 54.56C108.856 53.9733 107.99 53.1867 107.35 52.2C106.736 51.1867 106.43 50.0533 106.43 48.8ZM119.47 49.88C120.136 49.24 120.47 48.6267 120.47 48.04V45.92C119.083 45.36 117.683 45.08 116.27 45.08C114.856 45.08 113.71 45.3867 112.83 46C111.95 46.5867 111.51 47.3733 111.51 48.36C111.51 49.16 111.83 49.88 112.47 50.52C113.11 51.16 114.03 51.48 115.23 51.48C116.03 51.48 116.803 51.3333 117.55 51.04C118.323 50.7467 118.963 50.36 119.47 49.88ZM143.318 38.68C141.692 38.68 140.238 39 138.958 39.64C137.678 40.2533 136.758 41.1467 136.198 42.32V55H130.838V34.04H135.758V38.52C136.478 37.08 137.412 35.9467 138.558 35.12C139.732 34.2933 140.958 33.84 142.238 33.76C142.798 33.76 143.158 33.7733 143.318 33.8V38.68ZM146.747 59.08C147.734 59.3467 148.534 59.48 149.147 59.48C149.867 59.48 150.441 59.1733 150.867 58.56C151.321 57.9733 151.827 56.7867 152.387 55L144.107 34.04H149.667L155.307 49.52L160.267 34.04H165.387L156.587 59.16C156.107 60.6 155.241 61.7867 153.987 62.72C152.761 63.68 151.241 64.16 149.427 64.16C148.547 64.16 147.654 64.0133 146.747 63.72V59.08ZM165.64 55V49.24H170.04V55H165.64Z" fill="black"/>
</svg>
